<?xml version="1.0" encoding="utf-8"?>
<!-- Generator: Adobe Illustrator 15.0.0, SVG Export Plug-In . SVG Version: 6.00 Build 0)  -->
<!DOCTYPE svg PUBLIC "-//W3C//DTD SVG 1.1//EN" "http://www.w3.org/Graphics/SVG/1.1/DTD/svg11.dtd">
<svg version="1.1" id="Layer_1" xmlns="http://www.w3.org/2000/svg" xmlns:xlink="http://www.w3.org/1999/xlink" x="0px" y="0px"
	 width="822.704px" height="185.224px" viewBox="54.173 58.487 822.704 185.224"
	 enable-background="new 54.173 58.487 822.704 185.224" xml:space="preserve">
<g>
	<path fill="#232E68" d="M389.905,90.882c8.794,0.106,17.461,1.137,25.736,4.268c2.382,0.902,4.692,2.216,6.733,3.748
		c3.946,2.961,4.928,7.653,2.784,11.688c-2.041,3.841-6.399,5.417-11.114,3.841c-4.474-1.497-8.804-3.482-13.346-4.702
		c-27.637-7.428-54.314,14.018-53.132,42.583c0.728,17.537,8.457,30.639,24.791,37.742c11.327,4.926,22.993,4.209,34.536,0.271
		c3.116-1.064,6.169-2.348,9.336-3.219c4.273-1.176,8.288,0.666,10.218,4.359c1.963,3.76,1.081,7.768-2.37,10.844
		c-3.935,3.508-8.814,5.082-13.746,6.266c-8.444,2.025-17.039,3.316-25.759,2.594c-23.871-1.979-42.345-12.434-52.263-34.979
		c-5.645-12.83-6.646-26.385-3.061-40.119c4.94-18.918,16.779-31.94,34.358-39.914C371.922,92.387,380.75,90.71,389.905,90.882
		L389.905,90.882z"/>
	<path fill="#232E68" d="M525.291,92.4c5.4,0.002,8.702,2.299,9.653,6.617c1.143,5.19-2.142,9.881-7.448,10.197
		c-4.453,0.268-24.123,0.271-29.479,0.077c-2.667-0.097-3.225,0.862-3.218,3.371l0.005,87.92
		c-0.001,6.199-3.742,10.512-9.225,10.689c-5.859,0.191-10.072-3.916-10.095-10.049l0.003-88.727
		c0.018-2.431-0.625-3.238-3.131-3.202c-9.38,0.133-18.732,0.089-28.115,0.029c-4.767-0.03-7.394-1.916-8.742-5.988
		c-1.627-4.917,1.798-10.249,6.969-10.816c0.885-0.097,1.781-0.12,2.675-0.12L525.291,92.4L525.291,92.4z"/>
	<path fill="#232E68" d="M672.284,209.615c-7.019-0.018-10.709-3.727-10.715-10.764c-0.017-16.268-0.019-81.869,0.015-98.403
		c0.009-4.463,2.211-7.519,6.262-8.997c3.842-1.402,8.16-0.432,10.673,2.778c1.042,1.331,1.729,3.119,2.037,4.798
		c0.366,1.995,0.185,61.92,0.186,89.805c0.001,3.689,0.007,3.697,3.632,3.697l45.045,0.012c4.818,0.008,7.604,1.82,8.981,5.709
		c1.97,5.555-1.782,11.334-7.663,11.418L672.284,209.615z"/>
	<path fill="#232E68" d="M547.827,103.031c-0.011-4.583,1.587-8.02,5.867-9.853c1.269-0.542,2.773-0.738,4.169-0.735
		c15.993,0.027,31.997-0.204,47.977,0.32c10.215,0.335,19.683,3.454,26.778,11.53c4.887,5.561,7.351,12.207,8.181,19.425
		c1.972,17.135-5.176,31.686-21.647,39.125c-0.883,0.396-1.8,0.717-3.237,1.283c0.658,1.053,1.105,1.885,1.661,2.637
		c7.164,9.686,14.351,19.357,21.518,29.043c3.196,4.32,2.721,9.721-1.116,13.006c-4.193,3.592-10.082,3.488-13.631-0.838
		c-4.235-5.166-23.03-31.895-28.757-39.643c-0.745-1.01-2.449-1.807-3.729-1.838l-21.979-0.039
		c-2.246-0.035-2.812,0.727-2.795,2.924l-0.063,32.348c-0.001,3.855-1.761,6.717-5.114,8.463c-3.35,1.746-6.733,1.514-9.914-0.568
		c-2.651-1.736-4.146-4.238-4.186-7.404L547.827,103.031z M569.448,108.72c-1.42-0.006-2.422,0.217-2.417,2.002
		c0.031,12.512,0.024,25.024,0.003,37.537c-0.002,1.362,0.535,1.907,1.915,1.877c2.858-0.062,26.271,0.28,35.085-0.278
		c5.896-0.373,11-3.346,14.42-8.523c8.97-13.578,0.632-31.239-15.505-32.373C597.438,108.576,575.078,108.749,569.448,108.72
		L569.448,108.72z"/>
	<path fill="#232E68" d="M739.057,165.099c0.009,4.404-1.267,7.945-5.357,9.955c-6.495,3.193-13.789-1.279-13.823-8.559
		l-0.013-66.074c0.011-4.44,2.234-7.509,6.279-8.976c3.846-1.396,8.156-0.417,10.664,2.797c1.039,1.333,1.521,3.145,2.067,4.8
		c0.271,0.815,0.145,1.771,0.145,2.663L739.057,165.099z"/>
	<path fill="#232E68" d="M815.136,90.867c-34.09,0-61.73,26.98-61.73,60.25c0,33.279,27.641,60.25,61.73,60.25
		c34.1,0,61.74-26.971,61.74-60.25C876.877,117.847,849.236,90.867,815.136,90.867z M815.136,193.277
		c-23.08,0-41.8-18.869-41.8-42.16c0-23.28,18.72-42.16,41.8-42.16c23.09,0,41.8,18.88,41.8,42.16
		C856.936,174.408,838.226,193.277,815.136,193.277z"/>
</g>
<g>
	<path fill="#232E68" d="M202.307,236.416c-3.365,0-6.961-0.678-10.734-2.036c-12.911-4.652-27.494-17.199-40.011-34.424
		c-13.283-18.278-23.256-40.316-28.085-62.054c-7.822-35.216-4.031-58.116,11.27-68.063l0.197,0.304
		c-15.161,9.857-18.899,32.628-11.113,67.681c4.818,21.69,14.77,43.681,28.024,61.919c12.476,17.167,26.996,29.667,39.84,34.295
		c9.202,3.316,17.341,2.523,23.536-2.288l0.222,0.286C211.704,234.95,207.258,236.416,202.307,236.416z"/>
	<path fill="#232E68" d="M201.83,236.556c-13.697,0-30.987-10.562-47.671-29.947c-16.574-19.256-28.936-43.808-33.918-67.358
		c-9.477-43.931,2.657-61.999,14.505-69.42l0.202,0.322c-11.745,7.357-23.765,25.303-14.334,69.018
		c4.97,23.491,17.302,47.981,33.835,67.191c22.773,26.46,46.631,36.423,60.779,25.381l0.233,0.301
		C211.564,235.083,206.947,236.556,201.83,236.556z"/>
	<path fill="#232E68" d="M201.299,236.736c-4.497,0-9.424-1.084-14.682-3.257c-10.881-4.5-22.627-13.356-33.969-25.614
		c-17.967-19.418-30.959-43.938-35.645-67.268c-9.694-46.339,6.953-64.232,17.738-70.775l0.206,0.338
		c-10.696,6.488-27.2,24.255-17.556,70.356c4.672,23.264,17.628,47.711,35.547,67.079c11.302,12.215,23,21.038,33.83,25.516
		c11.433,4.728,21.271,4.251,28.45-1.375l0.245,0.312C211.482,235.17,206.7,236.736,201.299,236.736z"/>
	<path fill="#232E68" d="M200.72,236.904c-4.446,0-9.315-0.997-14.515-2.996c-11.095-4.268-23.221-12.838-35.065-24.787
		c-19.348-19.519-32.97-44.003-37.372-67.178c-9.759-48.183,11.416-66.494,20.972-72.13l0.21,0.357
		c-9.48,5.591-30.482,23.769-20.777,71.693c4.388,23.098,17.968,47.505,37.26,66.966c11.804,11.908,23.879,20.446,34.92,24.692
		c11.684,4.492,21.664,3.873,28.86-1.792l0.256,0.324C211.37,235.284,206.388,236.904,200.72,236.904z"/>
	<path fill="#232E68" d="M200.083,237.078c-14.042,0-32.001-9.275-50.453-26.7c-20.722-19.57-34.973-44.022-39.1-67.088
		c-3.606-18.425-2.666-34.615,2.796-48.115c5.688-14.06,14.782-21.558,21.411-25.371l0.215,0.374
		c-8.074,4.645-33.665,23.64-23.998,73.032c4.111,22.981,18.316,47.347,38.972,66.854c26.05,24.602,51.065,32.901,65.282,21.661
		l0.268,0.337C211.211,235.433,205.993,237.078,200.083,237.078z"/>
	<path fill="#232E68" d="M199.42,237.272c-4.319,0-9.035-0.827-14.072-2.487c-11.566-3.811-24.439-11.816-37.227-23.151
		c-22.088-19.578-36.97-43.998-40.828-66.998c-7.471-39.587,9.278-64.617,27.442-74.839l0.22,0.391
		c-18.03,10.147-34.648,35.013-27.22,74.37c3.842,22.905,18.671,47.23,40.684,66.742c26.959,23.896,52.549,31.719,66.784,20.418
		l0.279,0.351C211.121,235.53,205.689,237.272,199.42,237.272z"/>
	<path fill="#232E68" d="M198.692,237.474c-4.238,0-8.854-0.743-13.784-2.239c-11.823-3.587-25.065-11.313-38.294-22.345
		c-10.956-9.135-20.587-19.824-27.852-30.911c-7.908-12.067-12.856-24.18-14.704-35.998c-3.232-17.795-1.362-34.67,5.408-48.798
		c5.653-11.794,14.626-21.523,25.268-27.396l0.225,0.408c-18.528,10.225-37.619,36.188-30.442,75.708
		c3.575,22.861,19.028,47.144,42.395,66.629c27.841,23.215,54.006,30.562,68.285,19.178l0.291,0.365
		C210.984,235.666,205.298,237.474,198.692,237.474z"/>
	<path fill="#232E68" d="M197.906,237.69c-4.144,0-8.646-0.663-13.446-1.999c-12.093-3.364-25.701-10.814-39.355-21.545
		c-11.571-9.094-21.703-19.783-29.301-30.914c-8.24-12.071-13.281-24.151-14.984-35.905c-3.07-17.614-0.749-34.608,6.714-49.139
		c6.273-12.214,15.932-22.303,27.196-28.41l0.23,0.424c-21.417,11.612-40.132,39.938-33.664,77.048
		c3.261,22.508,19.75,47.372,44.106,66.515c28.696,22.555,55.438,29.429,69.787,17.938l0.302,0.378
		C210.837,235.808,204.878,237.69,197.906,237.69z"/>
	<path fill="#232E68" d="M197.058,237.919c-4.034,0-8.401-0.586-13.051-1.766c-12.375-3.14-26.348-10.316-40.41-20.752
		c-25.797-19.144-42.999-44.09-46.015-66.729c-2.91-17.438-0.136-34.551,8.021-49.479c6.806-12.455,17.42-23.179,29.124-29.422
		l0.235,0.441c-22.836,12.183-43.098,41.146-36.886,78.386c3,22.518,20.127,47.337,45.818,66.403
		c29.528,21.912,56.845,28.311,71.29,16.697l0.314,0.389C210.68,235.961,204.427,237.919,197.058,237.919z"/>
	<path fill="#232E68" d="M196.14,238.15c-14.887,0-33.948-7.383-54.051-21.49c-12.796-8.981-23.935-19.668-32.21-30.906
		c-8.771-11.909-14.141-24.266-15.533-35.735c-2.748-17.264,0.476-34.496,9.328-49.82c7.438-12.877,18.755-23.97,31.051-30.435
		l0.241,0.458c-23.465,12.337-46.025,42.549-40.107,79.725c2.736,22.546,20.503,47.323,47.528,66.291
		c30.337,21.288,58.23,27.211,72.793,15.456l0.325,0.403C210.465,236.162,203.865,238.15,196.14,238.15z"/>
	<path fill="#232E68" d="M195.12,238.43c-15.052,0-34.246-7.03-54.537-20.516c-13.407-8.908-25.051-19.592-33.673-30.893
		c-9.089-11.914-14.553-24.245-15.8-35.661c-2.588-17.092,1.089-34.44,10.634-50.159c8.079-13.304,20.099-24.767,32.978-31.449
		l0.247,0.475c-25.617,13.292-48.727,45.404-43.329,81.065c2.432,22.256,21.299,47.609,49.238,66.175
		c31.125,20.684,59.594,26.131,74.295,14.216l0.337,0.415C210.265,236.351,203.304,238.43,195.12,238.43z"/>
	<path fill="#232E68" d="M194.1,238.701c-3.589,0-7.424-0.373-11.477-1.124c-13.285-2.463-28.344-8.827-43.548-18.406
		c-29.402-18.523-49.022-43.991-51.203-66.464c-3.065-21.383,4.802-39.265,11.941-50.499c8.729-13.734,21.451-25.566,34.906-32.462
		l0.252,0.491c-26.355,13.509-51.627,46.98-46.551,82.404c2.166,22.32,21.688,47.628,50.949,66.062
		c15.146,9.542,30.138,15.881,43.354,18.329c13.78,2.555,25,0.702,32.443-5.354l0.349,0.427
		C210.144,236.478,202.858,238.701,194.1,238.701z"/>
	<path fill="#232E68" d="M192.959,238.994c-3.394,0-7.002-0.309-10.801-0.932c-13.607-2.232-29.025-8.33-44.589-17.635
		c-14.62-8.741-27.276-19.409-36.604-30.851c-9.725-11.931-15.372-24.215-16.33-35.525c-2.86-21.17,5.625-39.332,13.248-50.837
		c9.386-14.169,22.812-26.37,36.833-33.477l0.257,0.508c-27.715,14.046-54.578,48.17-49.772,83.743
		c0.949,11.21,6.553,23.388,16.206,35.228c9.285,11.391,21.89,22.016,36.454,30.723c15.503,9.27,30.852,15.342,44.389,17.562
		c14.045,2.303,25.425,0.288,32.912-5.828l0.36,0.44C209.942,236.671,202.257,238.994,192.959,238.994z"/>
	<path fill="#232E68" d="M191.731,239.308c-3.172,0-6.525-0.25-10.042-0.754c-13.937-2-29.714-7.832-45.627-16.872
		c-15.221-8.645-28.387-19.301-38.073-30.819c-10.042-11.941-15.779-24.207-16.59-35.469c-2.656-20.959,6.449-39.4,14.555-51.176
		c10.054-14.606,24.182-27.176,38.76-34.49l0.263,0.525c-29.476,14.784-57.357,50.652-52.995,85.083
		c0.804,11.154,6.494,23.303,16.456,35.148c9.641,11.467,22.75,22.078,37.913,30.688c32.876,18.673,63.809,22.791,78.805,10.493
		l0.371,0.453C209.727,236.876,201.612,239.308,191.731,239.308z"/>
	<path fill="#232E68" d="M190.342,239.622c-15.763,0-35.407-5.68-55.787-16.683c-32.929-17.78-55.063-43.765-56.392-66.201
		c-2.451-20.752,7.272-39.47,15.861-51.515c10.729-15.046,25.559-27.987,40.687-35.503l0.268,0.541
		c-30.172,14.99-60.245,52.295-56.216,86.424c1.318,22.25,23.33,48.039,56.078,65.722c33.586,18.135,65.109,21.766,80.309,9.252
		l0.384,0.466C209.422,237.156,200.724,239.622,190.342,239.622z"/>
	<path fill="#232E68" d="M188.989,239.994c-2.632,0-5.381-0.147-8.238-0.445c-14.616-1.521-31.111-6.832-47.703-15.354
		c-16.417-8.433-30.6-19.064-41.015-30.744c-10.676-11.973-16.591-24.202-17.107-35.369c-1.751-16.025,4.345-34.448,17.167-51.852
		c11.245-15.264,27.175-28.915,42.614-36.517l0.274,0.557c-15.354,7.56-31.2,21.141-42.388,36.328
		c-12.73,17.28-18.785,35.546-17.049,51.436c0.51,11.042,6.372,23.138,16.952,35.004c10.365,11.624,24.486,22.206,40.836,30.605
		c16.524,8.487,32.944,13.773,47.483,15.288c14.829,1.544,26.699-0.972,34.328-7.277l0.396,0.478
		C209.257,237.325,200.177,239.994,188.989,239.994z"/>
	<path fill="#232E68" d="M187.463,240.371c-2.31,0-4.705-0.105-7.183-0.318c-14.964-1.279-31.817-6.328-48.739-14.602
		c-35.063-17.145-59.116-43.678-59.853-66.026c-1.589-15.865,4.972-34.407,18.476-52.19C102.09,91.53,118.74,77.5,134.705,69.704
		l0.281,0.574c-15.88,7.753-32.446,21.713-44.313,37.342c-13.406,17.653-19.922,36.037-18.348,51.763
		c0.731,22.14,24.641,48.452,59.497,65.493c16.852,8.239,33.627,13.268,48.513,14.54c15.085,1.289,27.121-1.397,34.802-7.77
		l0.408,0.491C209.001,237.567,199.381,240.371,187.463,240.371z"/>
	<path fill="#232E68" d="M185.824,240.768c-1.947,0-3.951-0.068-6.013-0.208c-15.316-1.032-32.528-5.822-49.775-13.854
		c-17.601-8.195-32.803-18.794-43.964-30.647c-11.311-12.014-17.404-24.217-17.62-35.291c-1.427-15.705,5.598-34.369,19.782-52.528
		c12.613-16.148,29.984-30.557,46.468-38.544l0.286,0.589c-33.568,16.266-68.88,57.411-65.882,90.446
		c0.215,10.932,6.247,22.984,17.443,34.877c11.104,11.794,26.237,22.342,43.763,30.503c35.083,16.337,69.169,18.559,84.819,5.529
		l0.419,0.504C208.729,237.824,198.529,240.768,185.824,240.768z"/>
	<path fill="#232E68" d="M183.98,241.192c-16.202,0-35.676-4.457-55.449-13.23c-17.928-7.954-34.064-18.819-45.438-30.593
		c-11.63-12.037-17.812-24.23-17.876-35.258c-1.264-15.548,6.224-34.331,21.089-52.865c13.308-16.594,31.399-31.382,48.395-39.558
		l0.292,0.606c-16.909,8.134-34.914,22.852-48.162,39.372c-14.756,18.399-22.193,37.014-20.942,52.414
		c0.131,22.061,26.002,48.888,62.916,65.266c35.731,15.854,70.422,17.577,86.323,4.288l0.432,0.516
		C208.313,238.205,197.242,241.192,183.98,241.192z"/>
	<path fill="#232E68" d="M182.178,241.642c-1.085,0-2.187-0.019-3.305-0.056c-16.033-0.526-33.962-4.805-51.85-12.369
		c-18.503-7.826-35.164-18.669-46.913-30.531c-11.777-11.894-18.217-24.406-18.131-35.232c-1.1-15.391,6.854-34.295,22.396-53.202
		c14.011-17.044,32.823-32.211,50.321-40.572l0.298,0.623c-17.413,8.318-36.136,23.417-50.085,40.387
		c-15.43,18.77-23.328,37.5-22.24,52.741c-0.083,10.67,6.285,23.007,17.932,34.769c11.688,11.801,28.27,22.591,46.691,30.382
		c17.811,7.532,35.655,11.79,51.604,12.314c15.851,0.521,28.374-2.684,36.224-9.267l0.444,0.527
		C208.138,238.384,196.64,241.642,182.178,241.642z"/>
	<path fill="#232E68" d="M180.156,242.119c-0.58,0-1.162-0.005-1.75-0.015c-16.395-0.27-34.683-4.292-52.887-11.632
		c-19.075-7.692-36.26-18.512-48.389-30.467c-12.095-11.922-18.624-24.426-18.387-35.211c-0.935-15.234,7.482-34.258,23.702-53.538
		c14.721-17.496,34.253-33.042,52.249-41.585l0.303,0.639c-17.909,8.502-37.352,23.979-52.01,41.401
		c-16.103,19.141-24.462,37.988-23.537,53.068c-0.484,22.004,27.413,49.343,66.333,65.036c18.124,7.308,36.324,11.312,52.634,11.58
		c15.865,0.254,28.9-3.21,36.698-9.775l0.456,0.543C207.818,238.689,195.597,242.119,180.156,242.119z"/>
	<path fill="#232E68" d="M178.053,242.598c-16.272,0-35.206-3.628-54.041-10.87c-19.645-7.555-37.354-18.35-49.863-30.399
		c-12.412-11.953-19.033-24.452-18.642-35.192c-0.77-15.079,8.112-34.223,25.008-53.874c15.436-17.95,35.688-33.876,54.176-42.599
		L135,70.319c-18.399,8.682-38.563,24.539-53.936,42.417C64.29,132.245,55.47,151.208,56.23,166.131
		c-0.383,10.563,6.159,22.868,18.421,34.677c12.442,11.983,30.064,22.724,49.621,30.244c37.024,14.238,74.378,14.47,90.836,0.563
		l0.467,0.555C207.342,239.125,193.971,242.598,178.053,242.598z"/>
	<path fill="#232E68" d="M178.219,242.294c-16.57,0-35.571-3.818-53.932-10.875c-37.204-14.3-65.234-39.328-68.164-60.866
		l0.359-0.048c2.913,21.413,30.85,46.322,67.934,60.576c19.58,7.525,39.884,11.358,57.173,10.797
		c17.066-0.555,30.212-5.33,37.017-13.448c5.754-7.913,6.737-17.207,2.622-24.851l0.319-0.172c4.183,7.77,3.19,17.207-2.656,25.245
		c-6.879,8.207-20.12,13.028-37.291,13.587C180.487,242.277,179.358,242.294,178.219,242.294z"/>
	<path fill="#232E68" d="M176.286,239.686c-16.173,0.001-34.619-3.49-52.67-10.206c-18.285-6.768-34.441-16.034-46.722-26.8
		c-12.185-10.682-19.381-21.788-20.811-32.12l0.438-0.062c1.394,10.079,8.732,21.39,20.664,31.848
		c12.24,10.729,28.348,19.968,46.584,26.718c27.116,10.089,55.112,12.882,74.89,7.471c7.784-2.159,13.832-5.495,17.972-9.914
		c5.974-7.18,7.679-15.797,4.554-23.041l0.406-0.176c3.193,7.399,1.462,16.188-4.628,23.51c-4.206,4.488-10.323,7.865-18.186,10.048
		C192.096,238.789,184.482,239.686,176.286,239.686z"/>
	<path fill="#232E68" d="M174.386,237.095c-15.914,0-33.924-3.266-51.44-9.555c-18.074-6.424-34.038-15.274-46.163-25.599
		c-12.133-10.33-19.305-21.181-20.738-31.376l0.518-0.072c1.415,10.066,8.525,20.804,20.56,31.05
		c12.078,10.283,27.985,19.103,46,25.504c26.418,9.483,53.946,12.072,73.641,6.924c7.554-1.975,13.575-5.057,17.898-9.16
		c6.167-6.46,8.592-14.405,6.478-21.241l0.5-0.153c2.17,7.019-0.301,15.156-6.609,21.765c-4.396,4.175-10.495,7.299-18.135,9.297
		C190.179,236.233,182.559,237.095,174.386,237.095z"/>
	<path fill="#232E68" d="M172.325,234.53c-15.514,0-32.832-3.031-50.047-8.929c-36.733-12.582-63.368-34.697-66.273-55.028
		l0.598-0.086c2.875,20.112,29.347,42.031,65.872,54.543c26.155,8.96,52.542,11.284,72.391,6.377
		c7.346-1.816,13.344-4.646,17.829-8.411c6.331-5.756,9.475-13.031,8.397-19.453l0.597-0.101c1.11,6.627-2.104,14.105-8.597,20.01
		c-4.565,3.833-10.645,6.704-18.081,8.541C188.134,233.693,180.477,234.53,172.325,234.53z"/>
	<path fill="#232E68" d="M170.414,231.916c-15.259,0-32.145-2.802-48.804-8.252c-17.672-5.782-33.245-13.814-45.036-23.231
		c-12.042-9.616-19.169-19.938-20.609-29.854l0.677-0.099c2.848,19.598,29.042,40.71,65.181,52.532
		c25.415,8.316,51.348,10.441,71.147,5.83c7.139-1.661,13.114-4.239,17.762-7.661c6.469-5.072,10.329-11.687,10.315-17.687
		l0.684-0.001c0.014,6.208-3.943,13.024-10.585,18.231c-4.73,3.483-10.791,6.101-18.021,7.784
		C186.204,231.121,178.539,231.916,170.414,231.916z"/>
	<path fill="#232E68" d="M168.473,229.298c-14.996,0-31.437-2.569-47.529-7.573c-17.467-5.431-32.847-13.05-44.478-22.03
		c-11.993-9.26-19.096-19.325-20.542-29.109l0.756-0.112c1.416,9.584,8.419,19.479,20.252,28.616
		c11.56,8.926,26.856,16.5,44.237,21.904c24.668,7.672,50.147,9.598,69.905,5.283c6.938-1.516,12.893-3.843,17.7-6.917
		c6.68-4.479,11.143-10.29,12.238-15.939l0.751,0.145c-1.134,5.849-5.715,11.837-12.57,16.435
		c-4.891,3.128-10.929,5.489-17.956,7.024C184.263,228.547,176.577,229.298,168.473,229.298z"/>
	<path fill="#232E68" d="M166.49,226.684c-14.722,0-30.703-2.339-46.211-6.896c-17.26-5.072-32.448-12.273-43.92-20.826
		c-11.943-8.902-19.023-18.712-20.474-28.37l0.835-0.124c1.417,9.431,8.382,19.05,20.143,27.816
		c11.394,8.492,26.489,15.647,43.653,20.692c23.911,7.025,48.938,8.753,68.666,4.736c6.743-1.373,12.679-3.45,17.643-6.174
		c6.777-3.843,11.946-9.024,14.175-14.212l0.776,0.333c-2.3,5.354-7.6,10.682-14.54,14.618c-5.043,2.767-11.059,4.873-17.885,6.263
		C182.305,225.974,174.588,226.684,166.49,226.684z"/>
	<path fill="#232E68" d="M164.23,224.116c-14.299,0-29.553-2.112-44.614-6.267c-35.866-9.89-60.897-28.437-63.771-47.249
		l0.915-0.141c2.819,18.453,27.587,36.703,63.101,46.497c23.483,6.476,47.429,7.963,67.429,4.189
		c6.563-1.238,12.481-3.064,17.59-5.43c6.981-3.298,12.711-7.735,16.132-12.493l0.752,0.54c-3.512,4.884-9.369,9.426-16.492,12.792
		c-5.181,2.399-11.172,4.25-17.81,5.502C180.168,223.433,172.351,224.116,164.23,224.116z"/>
	<path fill="#232E68" d="M162.059,221.503c-14.002,0-28.736-1.883-43.105-5.592c-16.831-4.293-31.636-10.65-42.815-18.384
		c-11.838-8.189-18.87-17.498-20.333-26.922l0.995-0.153c2.807,18.068,27.302,35.53,62.404,44.485
		c22.607,5.833,46.115,7.126,66.196,3.643c6.405-1.111,12.307-2.688,17.542-4.687c7.238-2.791,13.5-6.516,18.105-10.771l0.682,0.74
		c-4.698,4.341-11.07,8.134-18.427,10.97c-5.297,2.022-11.261,3.617-17.729,4.74C178.129,220.864,170.218,221.503,162.059,221.503z"
		/>
	<path fill="#232E68" d="M160.026,218.862c-19.596,0-40.249-3.365-58.453-9.754c-26.729-9.382-43.425-23.412-45.807-38.493
		l1.073-0.169c1.185,7.501,5.989,14.704,14.279,21.41c7.729,6.253,18.384,11.863,30.814,16.227
		c25.615,8.991,56.112,11.957,81.579,7.934c15.328-2.421,27.973-6.787,37.583-12.98l0.588,0.915
		c-9.738,6.272-22.523,10.694-38.002,13.14C176.15,218.279,168.177,218.862,160.026,218.862z"/>
	<path fill="#232E68" d="M56.439,169.635c-0.085,0-0.162-0.062-0.178-0.149c-3.85-21.391,15.102-53.84,46.087-78.91
		c33.288-26.932,69.79-37.599,90.831-26.541c10.457,5.496,19.832,15.539,25.722,27.555c5.916,12.069,7.189,23.875,3.494,32.391
		c-0.039,0.092-0.146,0.134-0.238,0.094c-0.091-0.04-0.133-0.146-0.094-0.238c3.653-8.418,2.382-20.114-3.486-32.087
		c-5.857-11.949-15.175-21.934-25.565-27.394c-20.915-10.991-57.257-0.341-90.435,26.501c-30.887,24.99-49.786,57.296-45.958,78.565
		c0.018,0.099-0.048,0.192-0.146,0.21C56.461,169.634,56.45,169.635,56.439,169.635z"/>
	<path fill="#232E68" d="M56.439,169.657c-0.096,0-0.182-0.067-0.199-0.166c-1.872-10.331,1.624-23.23,10.109-37.303
		c8.481-14.064,21.091-27.875,36.462-39.939c16.217-12.783,33.34-21.933,49.519-26.459c15.925-4.457,29.713-4.123,39.871,0.966
		c10.283,5.15,19.643,14.687,25.679,26.163c6.021,11.448,7.675,22.77,4.537,31.063c-0.04,0.105-0.157,0.158-0.261,0.118
		c-0.104-0.039-0.157-0.156-0.118-0.26c3.097-8.185,1.45-19.386-4.517-30.731c-5.998-11.403-15.292-20.876-25.502-25.99
		c-20.725-10.381-56.475-0.154-88.958,25.45c-31.109,24.413-50.199,56.016-46.424,76.851c0.021,0.11-0.053,0.216-0.163,0.236
		C56.463,169.657,56.451,169.657,56.439,169.657z"/>
	<path fill="#232E68" d="M56.439,169.679c-0.106,0-0.201-0.075-0.22-0.183c-1.871-10.26,1.76-23.013,10.502-36.88
		c8.456-13.415,21.438-27.158,36.555-38.694c15.97-12.189,32.769-20.922,48.58-25.259c15.633-4.288,29.247-4.007,39.368,0.811
		c10.109,4.812,19.453,13.841,25.634,24.772c6.121,10.825,8.157,21.662,5.583,29.733c-0.038,0.118-0.164,0.182-0.281,0.145
		c-0.117-0.038-0.183-0.163-0.145-0.281c5.377-16.867-10.26-44.101-30.984-53.964c-10.023-4.771-23.529-5.041-39.056-0.783
		c-15.757,4.321-32.503,13.028-48.427,25.182c-15.076,11.506-28.02,25.207-36.448,38.577c-8.681,13.771-12.292,26.414-10.44,36.561
		c0.022,0.121-0.059,0.238-0.18,0.261C56.466,169.678,56.453,169.679,56.439,169.679z"/>
	<path fill="#232E68" d="M56.439,169.703c-0.115,0-0.219-0.084-0.241-0.201c-1.874-10.201,1.89-22.813,10.883-36.471
		c8.551-12.987,21.569-26.282,36.66-37.436c31.854-23.544,65.809-32.729,86.503-23.401c9.934,4.478,19.261,13,25.588,23.381
		c6.216,10.2,8.634,20.549,6.632,28.398c-0.033,0.131-0.166,0.211-0.297,0.177c-0.132-0.033-0.211-0.167-0.177-0.298
		c1.969-7.721-0.428-17.935-6.576-28.021c-6.278-10.299-15.525-18.751-25.371-23.19c-20.537-9.256-54.298-0.091-86.011,23.349
		c-15.044,11.12-28.022,24.37-36.542,37.311c-8.922,13.55-12.66,26.037-10.81,36.112c0.024,0.134-0.064,0.261-0.197,0.286
		C56.469,169.7,56.454,169.703,56.439,169.703z"/>
	<path fill="#232E68" d="M56.439,169.724c-0.126,0-0.238-0.09-0.262-0.218c-1.876-10.151,2.019-22.623,11.264-36.064
		c8.644-12.567,21.701-25.415,36.767-36.175c15.424-11.018,31.563-18.93,46.673-22.881c15.047-3.935,28.32-3.753,38.384,0.526
		c9.759,4.15,19.068,12.166,25.54,21.992c6.305,9.572,9.106,19.435,7.685,27.059c-0.026,0.145-0.167,0.239-0.311,0.213
		c-0.145-0.027-0.24-0.166-0.213-0.311c1.375-7.38-1.469-17.35-7.606-26.667c-6.416-9.742-15.639-17.685-25.304-21.795
		c-9.955-4.232-23.109-4.405-38.041-0.5c-15.047,3.936-31.126,11.819-46.499,22.799c-15.016,10.726-28.028,23.526-36.636,36.045
		c-9.164,13.323-13.028,25.656-11.179,35.665c0.026,0.145-0.068,0.283-0.213,0.311C56.471,169.722,56.455,169.724,56.439,169.724z"
		/>
	<path fill="#232E68" d="M56.439,169.746c-0.136,0-0.256-0.096-0.282-0.234c-1.88-10.108,2.146-22.438,11.644-35.658
		c8.734-12.156,21.83-24.557,36.874-34.915c15.149-10.432,30.957-17.932,45.716-21.691c14.754-3.758,27.857-3.625,37.894,0.383
		c9.724,3.884,18.777,11.201,25.49,20.602c6.385,8.943,9.571,18.315,8.74,25.715c-0.018,0.158-0.162,0.273-0.318,0.254
		c-0.158-0.018-0.272-0.161-0.254-0.318c1.6-14.247-12.847-37.321-33.872-45.717c-9.922-3.963-22.903-4.087-37.539-0.36
		C135.839,81.548,120.094,89.019,105,99.413c-27.046,18.623-52.463,47.488-48.278,69.993c0.029,0.156-0.074,0.307-0.23,0.336
		C56.474,169.745,56.457,169.746,56.439,169.746z"/>
	<path fill="#232E68" d="M56.439,169.769c-0.146,0-0.275-0.104-0.304-0.252c-4.194-22.414,21.591-50.759,49.006-68.909
		c30.343-20.086,61.826-27.85,82.161-20.261c20.721,7.734,35.692,29.385,35.235,43.578c-0.006,0.17-0.155,0.305-0.319,0.298
		c-0.17-0.005-0.304-0.148-0.299-0.319c0.451-13.982-14.35-35.333-34.833-42.978c-20.153-7.523-51.422,0.217-81.604,20.197
		c-27.244,18.037-52.881,46.143-48.739,68.279c0.032,0.168-0.079,0.329-0.248,0.36C56.477,169.767,56.458,169.769,56.439,169.769z"
		/>
	<path fill="#232E68" d="M56.439,169.791c-0.156,0-0.294-0.111-0.324-0.269c-4.165-22.115,21.858-49.708,49.496-67.243
		c14.592-9.258,29.735-15.935,43.791-19.308c14.167-3.4,26.933-3.367,36.918,0.095c20.429,7.083,35.495,27.204,36.239,40.832
		c0.009,0.183-0.129,0.338-0.312,0.348c-0.178,0.013-0.339-0.129-0.348-0.312c-0.733-13.418-15.614-33.246-35.796-40.244
		c-9.865-3.421-22.503-3.447-36.547-0.077c-13.987,3.357-29.061,10.005-43.591,19.224c-27.45,17.416-53.308,44.751-49.201,66.562
		c0.033,0.178-0.084,0.352-0.264,0.385C56.48,169.79,56.46,169.791,56.439,169.791z"/>
	<path fill="#232E68" d="M56.439,169.814c-0.165,0-0.313-0.118-0.345-0.286c-4.143-21.866,22.12-48.691,49.986-65.579
		c29.431-17.834,59.059-24.626,79.254-18.166c19.824,6.341,35.261,24.811,37.241,38.082c0.029,0.191-0.104,0.37-0.296,0.399
		c-0.192,0.03-0.371-0.104-0.399-0.296c-1.949-13.062-17.186-31.254-36.76-37.516c-20.004-6.398-49.417,0.367-78.676,18.098
		c-27.658,16.76-53.74,43.311-49.66,64.845c0.036,0.19-0.089,0.375-0.28,0.41C56.483,169.811,56.461,169.814,56.439,169.814z"/>
	<path fill="#232E68" d="M56.439,169.835c-0.175,0-0.332-0.125-0.366-0.303c-4.13-21.67,22.376-47.715,50.478-63.914
		c28.737-16.565,57.821-22.966,77.798-17.118c9.039,2.646,18.013,7.99,25.27,15.051c6.614,6.435,11.341,13.825,12.971,20.276
		c0.05,0.2-0.07,0.403-0.271,0.453c-0.198,0.052-0.402-0.07-0.453-0.27c-3.115-12.335-18.425-29.144-37.728-34.793
		c-19.786-5.79-48.652,0.583-77.216,17.049c-27.873,16.067-54.181,41.818-50.118,63.129c0.039,0.201-0.094,0.396-0.296,0.436
		C56.486,169.834,56.463,169.835,56.439,169.835z"/>
	<path fill="#232E68" d="M56.439,169.858c-0.185,0-0.351-0.132-0.387-0.32c-4.129-21.529,22.625-46.779,50.971-62.25
		c28.453-15.53,56.276-21.387,76.339-16.07c19.649,5.208,34.881,20.666,39.236,32.566c0.075,0.204-0.03,0.431-0.234,0.506
		c-0.205,0.075-0.431-0.03-0.506-0.234c-4.286-11.712-19.307-26.935-38.698-32.075c-19.869-5.267-47.481,0.564-75.759,16
		c-28.095,15.334-54.629,40.27-50.575,61.41c0.042,0.213-0.099,0.42-0.312,0.461C56.489,169.856,56.464,169.858,56.439,169.858z"/>
	<path fill="#232E68" d="M56.439,169.88c-0.195,0-0.369-0.138-0.408-0.337c-4.138-21.452,22.867-45.887,51.466-60.588
		c27.73-14.253,55.022-19.728,74.876-15.021c19.015,4.509,34.63,18.405,40.227,29.802c0.101,0.206,0.016,0.456-0.189,0.557
		c-0.206,0.102-0.455,0.016-0.556-0.19c-5.512-11.222-20.908-24.911-39.674-29.36c-19.665-4.663-46.749,0.788-74.305,14.952
		c-14.782,7.598-28.038,17.238-37.327,27.145c-10.841,11.562-15.579,22.816-13.703,32.547c0.044,0.225-0.104,0.443-0.33,0.486
		C56.492,169.878,56.465,169.88,56.439,169.88z"/>
	<path fill="#232E68" d="M56.439,169.902c-0.205,0-0.388-0.145-0.429-0.353c-1.941-10.008,3-21.379,14.289-32.886
		c9.353-9.532,23.085-19.024,37.674-26.041c13.321-6.407,26.416-10.894,38.921-13.336c12.867-2.512,24.471-2.725,34.49-0.635
		c19.238,4.014,34.561,16.472,41.213,27.037c0.129,0.204,0.068,0.474-0.136,0.602c-0.204,0.128-0.474,0.067-0.603-0.137
		c-6.553-10.407-21.666-22.684-40.652-26.646c-19.763-4.125-45.637,0.812-72.854,13.902c-14.502,6.975-28.144,16.403-37.429,25.866
		c-11.079,11.291-15.939,22.394-14.054,32.106c0.046,0.237-0.109,0.467-0.346,0.513C56.495,169.9,56.467,169.902,56.439,169.902z"/>
	<path fill="#232E68" d="M56.439,169.924c-0.215,0-0.406-0.151-0.45-0.37c-4.173-21.383,24.269-44.673,52.462-57.265
		c26.62-11.889,52.169-16.477,71.942-12.921c8.617,1.55,17.265,4.84,25.008,9.516c6.881,4.155,12.986,9.395,17.188,14.754
		c0.156,0.199,0.122,0.487-0.078,0.644c-0.2,0.156-0.487,0.122-0.643-0.078c-6.925-8.832-21.985-20.399-41.638-23.933
		c-19.594-3.525-44.952,1.041-71.406,12.855c-27.872,12.448-56.013,35.36-51.935,56.253c0.048,0.247-0.114,0.488-0.362,0.536
		C56.497,169.922,56.468,169.924,56.439,169.924z"/>
	<path fill="#232E68" d="M56.439,169.948c-0.225,0-0.426-0.159-0.47-0.388c-1.97-10.037,3.23-21.146,15.04-32.123
		c9.679-8.998,23.501-17.556,37.921-23.481c25.825-10.609,50.852-14.824,70.469-11.87c16.528,2.489,32.668,10.528,43.175,21.505
		c0.184,0.191,0.176,0.495-0.015,0.678c-0.191,0.183-0.495,0.177-0.678-0.015c-10.365-10.829-26.299-18.762-42.625-21.221
		c-19.448-2.929-44.294,1.266-69.961,11.809c-14.318,5.882-28.036,14.374-37.634,23.296c-8.057,7.49-17.156,18.988-14.752,31.237
		c0.051,0.26-0.118,0.513-0.378,0.562C56.5,169.944,56.469,169.948,56.439,169.948z"/>
	<path fill="#232E68" d="M56.439,169.969c-0.234,0-0.443-0.165-0.491-0.404c-1.987-10.061,3.344-21.04,15.414-31.749
		c9.875-8.76,23.744-16.85,38.05-22.193c25.35-9.47,49.207-13.211,68.992-10.82c16.649,2.012,32.742,8.843,44.152,18.743
		c0.208,0.181,0.231,0.498,0.05,0.707c-0.182,0.209-0.498,0.231-0.707,0.05c-11.263-9.772-27.16-16.517-43.616-18.505
		c-19.627-2.372-43.321,1.35-68.521,10.764c-14.196,5.302-27.95,13.323-37.735,22.004c-8.221,7.293-17.515,18.559-15.098,30.806
		c0.054,0.271-0.123,0.535-0.395,0.588C56.504,169.966,56.471,169.969,56.439,169.969z"/>
	<path fill="#232E68" d="M56.439,169.992c-0.244,0-0.462-0.172-0.512-0.421c-2.003-10.093,3.457-20.943,15.791-31.38
		c9.945-8.417,24.217-16.23,38.18-20.903c24.438-8.177,47.784-11.555,67.511-9.767c17.056,1.545,33.082,7.222,45.127,15.982
		c0.232,0.17,0.284,0.497,0.115,0.729c-0.168,0.233-0.496,0.285-0.729,0.115c-11.895-8.652-27.736-14.259-44.607-15.787
		c-19.586-1.775-42.783,1.585-67.086,9.718c-13.843,4.632-27.988,12.374-37.836,20.708c-8.387,7.098-17.873,18.13-15.441,30.381
		c0.056,0.283-0.127,0.558-0.41,0.613C56.508,169.989,56.472,169.992,56.439,169.992z"/>
	<path fill="#232E68" d="M56.439,170.013c-0.254,0-0.481-0.178-0.533-0.436c-2.554-12.796,7.382-23.932,16.167-31.02
		c10.185-8.217,24.506-15.545,38.311-19.604c21.905-6.439,42.586-9.438,61.471-8.914c20.001,0.556,37.044,5.072,50.658,13.423
		c0.255,0.157,0.336,0.492,0.179,0.748c-0.157,0.255-0.492,0.335-0.748,0.179c-26.364-16.174-65.875-17.733-111.253-4.393
		c-13.675,4.02-27.856,11.274-37.935,19.407c-8.551,6.9-18.231,17.697-15.783,29.96c0.059,0.294-0.132,0.58-0.427,0.64
		C56.51,170.011,56.474,170.013,56.439,170.013z"/>
	<path fill="#232E68" d="M56.268,170.912c-0.677,0-1.282-0.478-1.419-1.166c-0.172-0.859-0.292-1.736-0.358-2.604
		c-2.113-21.98,16.728-53.14,46.89-77.544c24.438-19.771,50.744-31.11,72.174-31.11c7.702,0,14.446,1.493,20.044,4.434
		c10.485,5.512,20.303,15.744,26.259,27.372c6.321,12.339,7.607,24.805,3.53,34.202c-0.167,0.386-0.493,0.679-0.894,0.805
		c-0.398,0.127-0.835,0.073-1.193-0.146c-14.264-8.75-32.362-13.187-53.793-13.187c-17.577,0-36.665,2.992-56.731,8.891
		c-23.101,6.791-54.933,25.561-53.399,46.036c0.076,0.785,0.183,1.562,0.318,2.312c0.141,0.783-0.375,1.532-1.156,1.681
		C56.449,170.903,56.358,170.912,56.268,170.912z M173.554,61.386c-20.779,0-46.421,11.104-70.351,30.466
		c-14.648,11.852-26.765,25.401-35.037,39.183c-4.061,6.766-7.048,13.411-8.864,19.618c3.046-4.673,7.497-9.311,13.286-13.799
		c10.134-7.857,24.104-14.877,37.371-18.777c20.333-5.978,39.695-9.008,57.549-9.008c21.243,0,39.341,4.281,53.827,12.729
		c2.961-8.411,1.519-19.296-4.058-30.183c-5.694-11.116-15.05-20.884-25.027-26.127C187.072,62.765,180.781,61.386,173.554,61.386z"
		/>
	<path fill="#232E68" d="M178.184,243.563c-16.901,0-35.696-3.79-54.352-10.96c-18.643-7.164-35.128-16.93-47.675-28.24
		c-12.284-11.074-19.845-23.02-21.29-33.637c-0.107-0.788,0.439-1.515,1.225-1.629c0.786-0.117,1.519,0.422,1.643,1.207
		c1.942,12.296,14.201,24.012,34.521,32.989c19.541,8.635,44.233,13.586,67.747,13.586c8.121,0,15.983-0.591,23.368-1.757
		c15.204-2.402,27.73-6.725,37.234-12.847c0.341-0.219,0.756-0.286,1.147-0.186c0.391,0.101,0.722,0.36,0.914,0.716
		c4.42,8.21,3.394,18.15-2.747,26.594c-0.019,0.026-0.04,0.053-0.061,0.078C212.242,238.56,197.443,243.563,178.184,243.563z
		 M68.56,192.332c11.787,14.386,32.069,28.248,56.312,37.566c18.327,7.044,36.762,10.767,53.312,10.767
		c18.358,0,32.354-4.62,39.419-13.011c5.095-7.032,6.243-15.169,3.191-22.079c-9.659,5.887-22.087,10.058-36.973,12.409
		c-7.535,1.19-15.548,1.793-23.821,1.793c-23.902,0-49.021-5.041-68.918-13.832C81.97,201.917,74.4,197.319,68.56,192.332z"/>
	<path fill="#232E68" d="M177.757,243.711c-16.904,0-35.703-3.794-54.366-10.969c-40.913-15.732-70.009-43.746-69.202-66.618
		c-0.01-15.51,9.174-34.885,25.867-54.558c15.448-18.206,35.612-34.238,53.939-42.886c0.689-0.325,1.513-0.061,1.884,0.605
		c0.371,0.666,0.163,1.505-0.476,1.92c-14.67,9.538-18.226,31.859-10.567,66.343c5.417,24.389,17.507,49.316,33.171,68.385
		c14.843,18.073,31.329,28.862,44.099,28.865c0,0,0.002,0,0.003,0c4.578,0,8.653-1.364,12.112-4.052
		c0.623-0.483,1.519-0.38,2.016,0.232c0.497,0.612,0.411,1.511-0.191,2.019C207.87,239.907,194.272,243.711,177.757,243.711z
		 M125.981,76.208c-15.292,8.969-31.093,22.358-43.715,37.234c-16.022,18.882-25.199,38.093-25.18,52.705c0,0.018,0,0.036,0,0.055
		c-0.371,10.219,6.052,22.23,18.088,33.822c12.34,11.885,29.833,22.543,49.257,30.014c18.334,7.05,36.774,10.775,53.326,10.774
		c8.735,0,16.588-1.083,23.158-3.143c-13.603-0.603-29.975-11.423-45.147-29.895c-15.942-19.41-28.248-44.778-33.76-69.597
		C115.599,109.322,116.943,88.551,125.981,76.208z"/>
</g>
</svg>
